<svg version="1.0" xmlns="http://www.w3.org/2000/svg"  width="100pt" height="100pt" viewBox="0 0 600.000000 600.000000"  preserveAspectRatio="xMidYMid meet"> <g transform="translate(0,600) scale(0.100,-0.100)" fill="#0cb6ad" stroke="none"> <path d="M4515 5483 c-394 -62 -755 -317 -964 -681 -50 -86 -86 -179 -96 -245 -4 -26 -12 -46 -17 -45 -6 2 -23 37 -38 78 -112 308 -373 594 -679 745 -194 96 -385 145 -565 145 -244 0 -524 -88 -733 -232 -100 -68 -255 -223 -319 -319 -110 -165 -180 -343 -209 -539 -27 -177 -14 -345 45 -575 51 -197 43 -271 -38 -353 -71 -70 -147 -88 -529 -123 -134 -13 -243 -26 -243 -31 0 -4 435 -8 968 -8 750 0 973 3 992 13 36 18 55 65 90 215 37 166 61 221 116 272 41 38 47 40 104 40 77 0 115 -16 162 -68 48 -53 57 -71 113 -232 54 -154 74 -197 105 -225 53 -48 80 26 109 300 30 272 47 336 112 409 87 100 207 101 294 4 81 -89 112 -217 170 -693 27 -228 66 -440 83 -457 14 -14 26 10 57 118 43 147 64 263 160 874 75 485 116 644 196 762 45 66 97 97 161 98 68 0 140 -87 189 -227 35 -101 69 -279 114 -598 55 -385 65 -498 65 -700 0 -618 -141 -1118 -470 -1665 -96 -160 -237 -370 -349 -519 -56 -74 -101 -138 -101 -143 0 -17 20 -6 66 35 27 24 99 79 159 123 564 403 1055 908 1420 1459 84 127 131 205 217 363 53 96 157 332 213 484 59 157 111 347 140 508 23 126 32 502 15 640 -14 110 -30 124 -30 26 0 -111 -28 -124 -262 -125 -127 -1 -127 -1 -125 -153 2 -143 1 -155 -20 -189 -34 -54 -55 -59 -231 -59 -190 0 -223 8 -254 58 -21 34 -23 51 -26 188 -4 151 -4 151 -164 158 -88 3 -168 11 -179 16 -33 18 -42 53 -48 185 -10 213 5 279 70 312 16 8 74 13 172 13 147 0 147 0 147 145 0 126 3 151 20 185 32 62 63 73 215 73 72 0 145 -3 163 -7 47 -11 39 7 -15 33 -172 84 -370 133 -553 136 -74 2 -148 1 -165 -2z m276 -37 c58 -8 132 -24 165 -36 32 -12 67 -24 77 -27 29 -9 19 -20 -25 -27 -24 -4 -52 -8 -63 -10 -52 -8 -104 -61 -123 -126 -6 -19 -10 -83 -9 -142 1 -59 -2 -110 -6 -114 -4 -4 -60 -9 -125 -11 -157 -5 -193 -19 -229 -92 -33 -66 -41 -173 -24 -316 19 -159 42 -178 236 -183 100 -3 132 -7 138 -18 5 -8 9 -62 10 -119 1 -58 4 -105 7 -105 3 0 6 -15 7 -32 2 -18 7 -34 13 -36 5 -2 10 -9 10 -16 0 -23 44 -54 92 -66 30 -8 106 -11 210 -9 150 4 165 6 195 27 54 38 65 73 70 212 7 162 5 160 137 160 56 0 126 6 156 14 30 8 59 12 63 9 12 -7 1 -387 -13 -478 -25 -163 -113 -503 -139 -540 -4 -5 -18 -39 -31 -75 -26 -74 -101 -246 -131 -302 -11 -21 -18 -38 -15 -38 4 0 -6 -19 -21 -42 -14 -24 -26 -45 -25 -48 1 -3 -3 -12 -10 -21 -7 -8 -22 -33 -33 -55 -11 -21 -29 -52 -41 -69 -12 -16 -36 -57 -54 -90 -18 -33 -38 -63 -44 -67 -6 -4 -8 -8 -4 -8 7 0 -36 -63 -73 -107 -5 -7 -7 -13 -3 -13 4 0 -3 -8 -14 -19 -12 -10 -22 -23 -22 -29 0 -6 -3 -12 -7 -14 -8 -3 -33 -37 -90 -122 -18 -26 -33 -44 -33 -40 0 5 -10 -7 -23 -26 -12 -19 -29 -42 -37 -50 -8 -9 -31 -35 -50 -60 -19 -24 -47 -56 -61 -71 -14 -15 -45 -51 -70 -80 -80 -96 -305 -320 -313 -312 -4 4 -6 3 -4 -3 2 -6 -23 -35 -56 -65 -32 -30 -75 -70 -96 -89 -20 -19 -54 -48 -75 -65 -21 -16 -48 -39 -61 -50 -59 -53 -80 -71 -100 -85 -12 -8 -64 -47 -115 -85 -52 -39 -107 -79 -124 -90 -30 -18 -30 -18 -11 10 12 18 13 25 5 20 -8 -3 -7 -1 2 7 9 7 28 33 44 57 15 25 31 49 36 55 26 33 159 242 164 257 4 11 11 19 16 19 5 0 9 6 9 14 0 8 6 21 13 28 13 15 39 63 126 233 71 139 100 203 150 338 55 145 122 387 137 492 44 325 60 597 45 775 -6 69 -14 154 -17 190 -3 36 -12 108 -19 160 -8 52 -16 113 -19 136 -3 22 -12 80 -20 130 -8 49 -22 143 -31 209 -10 66 -22 134 -27 150 -5 17 -18 63 -29 104 -22 81 -77 201 -92 201 -6 0 -8 3 -4 6 3 4 -13 24 -35 45 -46 42 -87 55 -145 44 -46 -8 -121 -54 -129 -77 -3 -10 -9 -18 -13 -18 -11 0 -78 -137 -85 -170 -2 -14 -9 -37 -14 -52 -27 -67 -108 -503 -131 -698 -5 -41 -11 -82 -15 -90 -5 -14 -20 -108 -50 -316 -8 -50 -18 -106 -24 -125 -6 -19 -19 -70 -28 -114 -9 -44 -21 -87 -26 -95 -6 -11 -7 -8 -3 8 7 23 -10 32 -18 10 -3 -7 -5 -4 -4 7 0 11 -7 58 -16 105 -9 47 -23 150 -32 230 -36 321 -77 526 -125 619 -22 44 -96 121 -116 121 -9 0 -12 5 -8 12 5 8 2 9 -9 5 -9 -3 -19 -2 -22 2 -11 18 -62 18 -121 0 -89 -27 -170 -111 -188 -194 -1 -5 -5 -19 -9 -30 -15 -46 -27 -137 -47 -335 -11 -111 -34 -200 -51 -200 -5 0 -16 11 -25 25 -16 24 -71 163 -79 200 -26 124 -105 235 -194 273 -56 23 -154 19 -193 -9 -82 -58 -120 -131 -158 -299 -24 -111 -46 -172 -68 -193 -23 -22 -24 -22 -525 -23 -520 -1 -757 4 -757 16 0 4 12 13 28 21 61 31 118 83 145 132 45 80 44 135 -3 328 -52 216 -63 317 -50 472 12 156 50 302 111 427 36 75 113 203 140 233 11 12 36 40 56 62 19 22 47 54 62 70 15 17 48 46 74 65 27 19 70 52 98 73 27 20 49 35 49 32 0 -4 12 3 26 14 15 12 33 21 40 21 8 0 14 4 14 9 0 5 6 8 12 8 7 -1 36 9 63 22 28 12 59 26 70 31 20 9 92 32 110 36 6 1 53 12 105 24 164 38 348 22 580 -49 54 -17 164 -64 171 -74 3 -5 12 -10 20 -11 24 -4 89 -39 89 -48 0 -4 7 -8 15 -8 8 0 15 -4 15 -8 0 -5 12 -14 26 -21 39 -17 98 -67 188 -157 148 -149 202 -225 277 -384 59 -126 70 -146 90 -158 19 -12 58 -2 51 12 -1 4 5 22 13 42 8 20 15 40 15 45 0 19 54 139 62 139 5 0 7 4 3 9 -3 5 3 17 12 27 10 10 18 20 18 23 1 10 58 93 85 125 14 16 24 33 22 38 -1 5 2 7 8 3 5 -3 13 2 16 12 9 24 166 176 224 216 25 17 51 37 58 44 32 32 251 142 292 148 8 1 22 4 30 8 38 15 130 38 174 43 28 2 52 7 55 9 9 9 127 4 232 -9z"/> <path d="M5376 5238 c4 -13 7 -89 6 -170 -1 -148 -1 -148 138 -148 113 0 140 3 140 14 0 27 -82 135 -174 229 -96 98 -124 117 -110 75z m129 -147 c60 -63 100 -119 91 -128 -4 -4 -37 -9 -74 -11 -93 -5 -100 3 -102 103 -1 44 -2 86 -1 93 2 20 31 0 86 -57z"/> <path d="M4073 4443 c-23 -57 -78 -326 -108 -528 -14 -99 -32 -218 -40 -265 -8 -47 -24 -146 -35 -220 -71 -463 -145 -676 -256 -730 -98 -48 -191 -4 -255 122 -53 104 -83 257 -119 613 -24 228 -32 281 -61 385 -23 86 -35 105 -55 90 -25 -22 -44 -107 -60 -265 -26 -279 -54 -386 -119 -463 -41 -49 -80 -66 -155 -65 -78 0 -127 22 -186 85 -53 54 -73 95 -118 238 -61 194 -88 249 -100 208 -3 -7 -19 -74 -36 -148 -37 -159 -73 -242 -130 -304 -74 -80 -81 -81 -508 -81 -204 0 -372 -3 -372 -6 0 -10 284 -284 360 -346 41 -34 132 -109 203 -167 70 -57 236 -185 368 -283 539 -399 649 -495 762 -674 55 -86 97 -194 123 -314 42 -192 -1 -397 -151 -725 -27 -58 -61 -127 -77 -154 -32 -54 -28 -77 5 -31 12 16 66 81 119 145 216 255 575 768 807 1152 112 185 224 432 292 643 111 341 156 799 114 1160 -43 372 -126 874 -155 943 -14 33 -39 27 -57 -15z m63 -123 c22 -96 72 -426 115 -760 17 -131 20 -192 15 -395 -3 -132 -7 -260 -11 -285 -11 -93 -37 -229 -64 -345 -30 -127 -118 -388 -132 -393 -5 -2 -9 -11 -9 -20 0 -9 -16 -48 -35 -86 -19 -37 -32 -73 -28 -79 3 -5 2 -7 -4 -4 -5 3 -17 -16 -27 -43 -10 -28 -26 -60 -35 -72 -10 -13 -29 -43 -42 -68 -13 -25 -28 -50 -34 -57 -5 -6 -23 -34 -40 -62 -40 -69 -207 -327 -240 -372 -28 -38 -36 -51 -73 -118 -13 -23 -29 -44 -37 -48 -8 -3 -13 -8 -10 -12 2 -4 -9 -22 -25 -39 -16 -18 -26 -32 -22 -32 4 0 -2 -7 -12 -15 -11 -8 -16 -15 -12 -15 4 0 -7 -15 -24 -32 -16 -18 -33 -41 -36 -50 -3 -10 -9 -18 -14 -18 -5 0 -11 -8 -14 -18 -4 -10 -14 -27 -25 -38 -22 -24 -84 -107 -112 -151 -12 -18 -25 -33 -31 -33 -5 0 -17 -8 -26 -18 -10 -10 -14 -13 -10 -7 3 5 7 13 7 17 2 11 6 23 44 128 66 181 87 276 87 396 0 79 -28 243 -50 289 -5 11 -19 45 -31 75 -12 30 -35 74 -51 98 -15 24 -28 46 -28 50 0 4 -22 30 -50 57 -27 27 -50 55 -50 61 0 7 -27 36 -61 66 -33 29 -77 68 -97 86 -21 19 -53 46 -72 60 -19 15 -41 32 -47 37 -7 6 -25 19 -39 30 -15 11 -38 30 -51 42 -13 13 -28 23 -32 23 -4 0 -16 9 -26 20 -10 11 -24 20 -32 20 -7 0 -13 5 -13 10 0 6 -8 14 -17 17 -10 4 -23 12 -29 17 -33 31 -53 44 -58 39 -3 -4 -6 -1 -6 5 0 5 -16 20 -35 32 -20 12 -41 27 -48 34 -6 6 -30 25 -52 41 -22 17 -42 32 -45 35 -3 3 -23 18 -46 33 -22 15 -49 35 -60 45 -10 10 -35 28 -54 41 -19 13 -45 34 -57 45 -12 12 -28 26 -35 31 -49 38 -125 102 -135 115 -7 8 -13 12 -13 9 0 -4 -16 7 -35 25 -19 17 -51 45 -71 61 -55 45 -216 197 -238 224 -15 19 -16 25 -5 32 8 5 158 8 334 8 306 -2 322 -1 377 20 50 19 109 70 146 126 31 47 61 133 93 263 7 28 16 52 21 52 12 0 29 -38 63 -144 18 -56 42 -117 54 -136 11 -19 24 -41 28 -49 10 -23 69 -77 110 -102 28 -17 56 -24 117 -27 71 -3 87 -1 126 20 50 27 108 97 128 155 26 73 50 219 62 363 18 229 39 269 73 138 27 -106 34 -157 63 -483 9 -95 43 -295 60 -355 41 -136 108 -235 182 -266 19 -8 30 -9 26 -3 -4 7 1 7 15 -1 32 -17 119 4 156 38 104 94 176 317 235 737 12 83 31 202 42 265 11 63 26 158 33 210 29 212 80 467 96 486 11 13 14 13 22 -2 5 -9 15 -42 23 -74z"/> </g> </svg>